<?xml version="1.0" encoding="UTF-8"?>
<svg id="Livello_1" data-name="Livello 1" xmlns="http://www.w3.org/2000/svg" version="1.1" viewBox="0 0 398.4 86.5">
  <defs>
    <style>
      .cls-1 {
        fill: #212529;
        stroke-width: 0px;
      }
    </style>
  </defs>
  <path class="cls-1" d="M0,54.8c0-17.5,14.2-31.6,31.8-31.6s23.1,9.9,23.1,9.9l-8.7,9c-3.3-3.8-8.3-6.1-14.3-6.1-10.1,0-18.2,8.2-18.2,18.9s8.1,19,18.2,19,10.2-2,13.6-5.4l8.7,8.8c-5.7,5.8-13.6,9.3-22.3,9.3C14.3,86.6.1,72.5.1,54.9h-.1Z"/>
  <path class="cls-1" d="M56.6,55.1c0-17.6,14.2-31.4,31.7-31.4s31.7,13.8,31.7,31.4-14.2,31.4-31.7,31.4-31.7-14.2-31.7-31.4ZM106.7,55.1c0-11.5-8.2-18.7-18.3-18.7s-18.1,7.1-18.1,18.7,8.1,18.7,18.1,18.7,18.3-7.6,18.3-18.7Z"/>
  <path class="cls-1" d="M130,25.2h53.8v59.7h-13.4v-47h-27.1v47h-13.4V25.2h0Z"/>
  <path class="cls-1" d="M201.6,37.9h-9.2v-12.6h9.2V8.4h13.5v16.8h9.5v12.6h-9.5v34.4h9.2v12.6h-22.7v-47h0Z"/>
  <path class="cls-1" d="M230.9,55c0-17.5,12.5-31.5,29.5-31.5s18.8,5.7,22.5,13.6h.4v-11.9h13.2v59.7h-13.2v-11.7h-.4c-5.2,9.4-12.9,13.3-22.5,13.3-16.9,0-29.5-14-29.5-31.5ZM281.4,55c0-10.8-7.4-18.8-18.2-18.8s-18,8-18,18.8,7.3,18.8,18,18.8,18.2-8.1,18.2-18.8Z"/>
  <path class="cls-1" d="M314.3,37.9h-9.2v-12.6h9.2V8.4h13.5v16.8h9.5v12.6h-9.5v34.4h9.2v12.6h-22.7v-47h0Z"/>
  <path class="cls-1" d="M350,37.9h-9.2v-12.6h9.2V8.4h13.5v16.8h9.5v12.6h-9.5v34.4h9.2v12.6h-22.7v-47h0Z"/>
  <path class="cls-1" d="M382.8,7.8C382.8,3.5,386.4,0,390.7,0s7.8,3.5,7.8,7.8-3.5,7.9-7.8,7.9-7.9-3.6-7.9-7.9ZM383.9,25.2h13.6v59.6h-13.6V25.2Z"/>
</svg>