<?xml version="1.0" encoding="UTF-8"?>
<svg id="Livello_1" data-name="Livello 1" xmlns="http://www.w3.org/2000/svg" version="1.1" viewBox="0 0 734.8 258.3">
  <defs>
    <style>
      .cls-1 {
        fill: #212529;
        stroke: #212529;
        stroke-width: 10px;
      }
    </style>
  </defs>
  <path class="cls-1" d="M226.8,126.8c-12.3-1.5-19.5-1.8-33.6-1.8-28.2,0-46.4,1.5-72.1,6.4l-2.6-36.4c-12.3,1.3-15.9,1.5-23.3,2.1-10,51-15.6,71.8-41,149.5l-47.2-17.2c17.2-33.6,34.4-85.9,43.1-131.3h-4.1c-5.9,0-12.8-.3-17.7-.5-6.7-.3-7.7-.3-9.7-.3s-3.1,0-5.6.3l.8-41.8c10,1.5,23.6,2.6,39,2.6h4.9c3.3-21,4.4-30.5,4.4-38.2v-4.1l48,3.6c-1.5,5.1-2.1,6.9-3.3,14.9-1,5.4-2.3,12.8-4.1,22.1,16.9-1.5,29.5-3.6,42.1-6.7l1,37.2s-.4-.2-.4-.2c24.9-3.3,56.4-3.8,89-3.8l-7.6,43.6ZM154.4,158.5c-9.7,11.5-14.1,19-14.1,27,0,11.8,10.5,17.4,32.1,17.4s45.1-4.1,60.8-10l3.1,44.9c-5.1.5-6.9.8-13.8,1.5-23.9,3.3-34.1,4.1-50,4.1-50.3,0-75.4-16.2-75.4-48.5s5.9-29.2,20.3-49.8l37,13.4ZM184.4,21.8s18.2,23.1,25.9,38l-24.4,11.8c-8.7-16.7-15.9-27.4-25.9-38.7l24.4-11.1ZM244.7,43.3l-23.6,11.5c-9.7-17.7-16.9-28.2-25.7-38l23.1-10.5,26.2,37Z"/>
  <path class="cls-1" d="M269,39.3c15.1,3.6,41.6,5.4,73.9,5.4s6.4,0,14.1-.3c-.3-16.9-.5-21.5-1.5-28h45.1c-1.3,6.9-1.3,8.7-2.1,26.7,34.1-2.1,58-4.9,72.8-9l1.3,39.2c-7.4.5-9,.5-22.6,2.3-17.2,2.3-31.5,3.6-51.6,4.4v16.2c29-1.5,48.5-3.8,66.2-7.7l1,39.2c-3.6.2-9.1.6-16.4,1.3-11.5,1.3-36.2,3.1-50.3,3.6.2,7.9.5,15.4.8,22.6,13.3,3.6,21.5,6.7,35.1,13.8,13.1,6.9,16.2,8.7,34.4,21.3,3.8,2.6,5.6,3.6,9.7,6.2l-24.4,41.3c-5.1-5.5-10.9-10.9-17.4-16.4-12.1-10.3-24.6-18.2-36.4-22.8,0,11.5-1.8,19.2-6.2,25.9-8.5,13.1-28,20.3-55.9,20.3-42.1,0-65.9-17.2-65.9-46.9s11.8-34.1,32.3-41.8c12.1-4.6,27.4-6.9,45.7-6.9h8c-.3-8.7-.5-13.9-.5-15.1-5.4,0-15.9.3-19.7.3-14.9,0-26.7-.3-41.3-1-11.3-.5-12.6-.8-20.3-.8l.5-38.2c11.3,2.3,36.9,4.1,63.1,4.1s9.2,0,17.2-.3v-3.8c0-.3,0-2.6-.3-6.7v-6.2c-5.9.3-8.5.3-10.8.3-13.8,0-18.2-.3-47.7-1.5-6.5-.2-12.9-.5-19.2-.8-3.6-.3-6.2-.3-6.9-.3h-4.4l.5-39.8h.1,0ZM343.2,185.5c-15.6,0-24.6,4.4-24.6,12.3s7.2,10.3,20,10.3,20.5-4.9,20.5-16.4-.3-4.4-.3-4.4c-6.2-1.5-9.7-1.8-15.6-1.8h0Z"/>
  <path class="cls-1" d="M499.9,43.1c6.4.5,9.2.8,15.6.8s75.9-1.8,99.8-2.6c-.3-16.4-.5-19.7-1.8-27.2h45.4c-1,9-1.3,11.8-1.3,26.2,42.6-.3,61.6-.8,71.8-1.8l.3,42.1c-11.5-1-16.7-1.3-46.2-1.3s-15.4,0-25.7.3v38c7.4,13.6,10.3,25.6,10.3,42.8,0,28.7-14.9,53.9-42.3,71-12.6,7.7-27.2,13.6-51.6,20.8-7.2-18.2-12.8-27.7-24.4-40.5,25.9-3.8,40.5-7.9,52.8-15.6,9.5-5.6,14.9-11.3,19-20.3-10.8,9-19.5,12.1-34.4,12.1-29.8,0-50.8-19.5-50.8-46.9s24.1-49.2,59.5-49.2,14.1.8,20,2.8v-8c0-2.4,0-4.5-.3-6.2-53.1,1.5-94.9,3.8-114.7,6.7l-1.3-43.9h.3ZM579.6,138.8c0,7.9,7.2,13.8,16.9,13.8s19.5-6.7,19.5-15.4-6.7-13.3-16.9-13.3-19.5,6.2-19.5,14.9Z"/>
</svg>