<?xml version="1.0" encoding="UTF-8"?>
<svg id="Livello_1" data-name="Livello 1" xmlns="http://www.w3.org/2000/svg" version="1.1" viewBox="0 0 130 130">
  <defs>
    <style>
      .cls-1 {
        fill: #e30d13;
      }

      .cls-1, .cls-2 {
        stroke-width: 0px;
      }

      .cls-2, .cls-3 {
        fill: #fff;
      }

      .cls-3 {
        stroke: #fff;
        stroke-miterlimit: 10;
        stroke-width: .5px;
      }
    </style>
  </defs>
  <path class="cls-1" d="M65,0h0C100.9,0,130,29.1,130,65h0c0,35.9-29.1,65-65,65h0C29.1,130,0,100.9,0,65h0C0,29.1,29.1,0,65,0Z"/>
  <path class="cls-2" d="M65,47.3l-4.8,12.9-12.9,4.8,12.9,4.8,4.8,12.9,4.8-12.9,12.9-4.8-12.9-4.8-4.8-12.9Z"/>
  <g>
    <path class="cls-3" d="M20,24.8l1-1.1,6.9,3-.9,1-1.1-.5-2.1,2.2.5,1-.9,1-3.4-6.6ZM24.8,26.7l-2.7-1.2c-.2-.1-.3-.1-.5-.2h0c.1.1.2.3.3.4l1.4,2.6,1.5-1.6Z"/>
    <path class="cls-3" d="M24.9,21.6l-1.3,1.2-.8-.9,3.5-3.1.8.9-1.3,1.2,3.9,4.4-.9.7-3.9-4.4Z"/>
    <path class="cls-3" d="M28.9,18.2l-1.4,1-.7-.9,3.8-2.8.7.9-1.4,1,3.5,4.8-1,.7-3.5-4.7Z"/>
    <path class="cls-3" d="M31.9,14.7l3.9-2.3.6,1-2.8,1.7.9,1.5,2.3-1.4.6,1-2.3,1.4.9,1.5,2.8-1.7.6,1-3.9,2.3-3.6-6Z"/>
    <path class="cls-3" d="M37.4,11.5l1.2-.5,4.4,2.9c.2.1.4.3.6.5h0l-2.1-4.7,1.1-.5,2.9,6.5-1.2.5-4.4-2.9c-.2-.1-.3-.2-.5-.4h0l2,4.6-1.1.5-2.9-6.5Z"/>
    <path class="cls-3" d="M46.1,14.3l1.8-5.6-3.2,1-.3-1.1,4.6-1.5.4,1.2-1.8,5.4,3.2-1,.3,1.1-4.7,1.5-.3-1Z"/>
    <path class="cls-3" d="M50.6,6.7l1.2-.3,1.6,6.9-1.2.3-1.6-6.9Z"/>
    <path class="cls-3" d="M53.9,9.5c-.3-2,1.2-3.9,3.2-4.1,2-.3,3.9,1.2,4.1,3.2.3,2-1.2,3.9-3.2,4.1-2,.3-3.8-1.2-4.1-3.2ZM60,8.7c-.2-1.4-1.3-2.4-2.8-2.2-1.4.2-2.2,1.5-2.1,2.9.2,1.4,1.3,2.4,2.7,2.2,1.5-.2,2.4-1.4,2.2-2.9Z"/>
    <path class="cls-3" d="M62.7,5h1.3l2.8,4.5c0,.2.2.5.4.7h0v-5.1h1.2v7.1h-1.4l-2.8-4.5c0-.2-.2-.4-.3-.5h0v5h-1.2v-7.2Z"/>
    <path class="cls-3" d="M70.7,5.3l4.5.6-.2,1.1-3.2-.4-.2,1.8,2.7.3-.3,1.1-2.7-.3-.2,1.8,3.2.4v1.2c0,0-4.6-.6-4.6-.6l1-7Z"/>
    <path class="cls-3" d="M77.8,9.9c.6-1.9,2.6-3,4.6-2.5,2,.6,3.1,2.6,2.5,4.6-.2.8-.8,1.5-1.4,2l.6,1.5-1.5-.5-.2-.5c-.6.2-1.3.2-2.1,0-1.9-.6-3-2.7-2.5-4.6ZM83.7,11.6c.4-1.4-.3-2.7-1.6-3.1-1.4-.4-2.7.3-3.1,1.7s.3,2.7,1.6,3.1c1.4.5,2.7-.3,3.1-1.7Z"/>
    <path class="cls-3" d="M85.8,13.5l1.9-4.2,1.1.5-1.9,4.2c-.3.8,0,1.5.8,1.9.8.4,1.6.1,1.9-.7l1.9-4.2,1.1.5-1.9,4.2c-.6,1.4-2.1,1.9-3.6,1.3-1.4-.7-2-2.1-1.3-3.5Z"/>
    <path class="cls-3" d="M94.5,12.6l3.9,2.3-.6,1-2.8-1.7-.9,1.5,2.3,1.4-.6,1-2.3-1.4-.9,1.5,2.8,1.7-.6,1-3.9-2.3,3.6-6Z"/>
    <path class="cls-3" d="M96.4,19.6l1,.7c-.3.4,0,1.1.4,1.5.6.4,1.2.4,1.5,0,.4-.5.2-.9-.4-1.7-.5-.7-1.3-1.7-.4-2.9.7-.9,2.1-1,3.1-.3,1,.8,1.3,2.1.6,3.1l-1-.7c.3-.4.2-1-.3-1.4-.6-.4-1.1-.4-1.4,0s-.2.7.4,1.5,1.4,1.8.5,3.1c-.7,1-2.2,1.1-3.2.3-1.2-.8-1.5-2.2-.8-3.2Z"/>
    <path class="cls-3" d="M104.6,21.2l-1.3-1.2.8-.9,3.5,3.2-.8.9-1.3-1.2-4,4.4-.9-.8,4-4.4Z"/>
    <path class="cls-3" d="M109.4,24.2l1,1.1-3.5,6.6-.9-1,.5-1-2.1-2.3-1,.4-.9-1,6.9-2.8ZM107.1,28.8l1.4-2.6c0-.2.2-.3.3-.5h0c0,.1-.3.2-.5.2l-2.7,1.2,1.5,1.7Z"/>
    <path class="cls-3" d="M109.9,32.5l.7,1c-.5.3-.5,1,0,1.5.4.6,1,.7,1.4.5.6-.4.5-.8.2-1.7s-.7-2.1.5-2.9c1-.6,2.3-.3,3,.8.7,1.1.5,2.5-.4,3.1l-.7-1c.5-.3.5-.9.2-1.4-.4-.6-.9-.7-1.3-.5-.4.3-.4.6-.2,1.5.3.9.8,2.2-.6,3.1-1,.7-2.4.3-3.2-.8-.7-1.1-.5-2.5.5-3.2Z"/>
    <path class="cls-3" d="M117.2,36.7l-.8-1.5,1-.6,2.3,4.2-1,.6-.8-1.5-5.2,2.8-.6-1.1,5.1-2.9Z"/>
    <path class="cls-3" d="M116.8,40.9c1.9-.8,4,.2,4.8,2.1.8,1.9,0,4-2,4.8s-4-.2-4.8-2.1c-.8-1.9,0-4.1,2-4.8ZM119,46.6c1.3-.5,2-1.9,1.4-3.2-.5-1.3-1.9-1.9-3.2-1.3-1.3.5-2,1.9-1.4,3.2.5,1.2,1.9,1.8,3.2,1.3Z"/>
    <path class="cls-3" d="M123.3,48.2l.6,2.2c.3,1.3-.4,2.7-1.8,3-.9.2-1.9,0-2.4-.8l-2,2-.3-1.4,1.8-1.7-.2-.8-2.1.5-.3-1.2,6.7-1.8ZM120.2,51.3c.2.7.8,1,1.6.9.7-.2,1.1-.8,1-1.5l-.2-1-2.5.6v1Z"/>
    <path class="cls-3" d="M124.7,54.5l.2,1.2-7,1.2-.2-1.2,7-1.2Z"/>
    <path class="cls-3" d="M125.4,59.5v1.4c0,0-6.8,3.1-6.8,3.1v-1.3c0,0,.9-.5.9-.5l-.2-3.1-1.1-.3v-1.3c0,0,7.2,2,7.2,2ZM120.7,61.7l2.7-1.2c.2,0,.3,0,.5-.2h0c-.2,0-.3,0-.5,0l-2.9-.7.2,2.2Z"/>
    <path class="cls-3" d="M125.6,67.2l-.3,4.5h-1.2c0,0,.2-3.4.2-3.4h-1.8c0,0-.2,2.6-.2,2.6h-1.2c0,0,.2-2.8.2-2.8h-1.8c0,0-.2,3.2-.2,3.2h-1.2c0,0,.3-4.6.3-4.6l7.2.5ZM128,68.3v1.3c0,0-1.8.4-1.8.4v-.9c0,0,1.8-.8,1.8-.8Z"/>
    <path class="cls-3" d="M124.7,75.9l-1,4.4-1.1-.2.7-3.2-1.7-.4-.6,2.7-1.1-.3.6-2.7-2.9-.6.3-1.2,6.8,1.5Z"/>
    <path class="cls-3" d="M122.9,83l-.5,1.4-7.5.2.4-1.2h1.1l1-2.9-.9-.7.4-1.2,6,4.4ZM117.7,83.2h3.5c-.2,0-.3-.2-.4-.3l-2.4-1.8-.7,2.1Z"/>
    <path class="cls-3" d="M121,88.1l-.5,1.1-5.4-2.4-1.2,2.6-1.1-.5,1.7-3.7,6.5,2.9Z"/>
    <path class="cls-3" d="M114.5,90.1l-.6,1.1c-.5-.3-1.1,0-1.4.5-.4.6-.2,1.2.2,1.5.6.3.9,0,1.6-.6.7-.6,1.6-1.5,2.8-.8,1,.6,1.3,1.9.6,3.1-.7,1.1-2,1.6-3,1l.6-1.1c.5.3,1,0,1.4-.5.3-.6.2-1.2-.2-1.4-.4-.2-.8,0-1.4.5-.7.6-1.6,1.6-3,.8-1.1-.6-1.3-2-.7-3.2.7-1,2.1-1.5,3.1-.9Z"/>
    <path class="cls-3" d="M114.4,99.8l-.9,1.2-7.2-2.2.8-1.1,1.1.3,1.8-2.5-.6-.9.8-1.1,4.2,6.3ZM109.4,98.4l2.9.9c.2,0,.3,0,.5.2h0c0,0-.2-.3-.3-.4l-1.7-2.5-1.4,1.8Z"/>
    <path class="cls-3" d="M106.7,99.2c.3.3.3.7,0,1-.3.3-.7.3-1,0-.3-.3-.3-.7,0-1,.2-.3.7-.4,1,0Z"/>
    <path class="cls-3" d="M106,104.4c1.4,1.5,1.3,3.8-.2,5.2-.8.7-1.7,1-2.7,1v-1.1c.6,0,1.3-.2,1.9-.7,1-.9,1.1-2.4,0-3.4-1-1.1-2.5-1.2-3.5-.2-.6.5-.9,1.1-.9,1.7h-1.1c0-1,.4-1.9,1.2-2.6,1.5-1.5,3.8-1.5,5.2,0Z"/>
    <path class="cls-3" d="M101.1,108.9c1.2,1.7.8,4-.9,5.1-1.7,1.2-4,.8-5.1-.9-1.2-1.7-.8-4,.9-5.1,1.6-1.2,3.9-.8,5.1.9ZM96,112.4c.8,1.2,2.3,1.5,3.5.7s1.4-2.3.5-3.5c-.8-1.2-2.3-1.5-3.4-.7-1.2.9-1.4,2.4-.6,3.5Z"/>
    <path class="cls-3" d="M95.4,117l-1.1.6-4.5-2.7c-.2,0-.4-.3-.6-.4h0l2.3,4.5-1.1.6-3.2-6.3,1.2-.6,4.6,2.7c.2,0,.3.2.5.4h0l-2.3-4.5,1.1-.6,3.1,6.3Z"/>
    <path class="cls-3" d="M86.9,119.7l1.6-.6.4,1.1-4.4,1.7-.4-1.1,1.6-.6-2.1-5.5,1.2-.4,2.1,5.4Z"/>
    <path class="cls-3" d="M83.1,122.3l-4.4,1.2-.3-1.1,3.2-.9-.5-1.7-2.6.7-.3-1.1,2.6-.7-.5-1.7-3.2.9-.3-1.1,4.4-1.2,1.9,6.7Z"/>
    <path class="cls-3" d="M76.9,123.9l-1.3.2-3.4-4c-.2-.2-.3-.4-.5-.6h0l.7,5-1.2.2-1-7,1.3-.2,3.4,4c0,.2.3.3.3.5h0l-.7-5,1.2-.2,1.2,7.1Z"/>
    <path class="cls-3" d="M68.9,120.3v4.6c0,0-1.1,0-1.1,0v-4.6c0-.8-.7-1.4-1.6-1.4s-1.5.6-1.4,1.4v4.6c0,0-1.1,0-1.1,0v-4.6c0-1.5,1-2.7,2.6-2.7s2.6,1.2,2.6,2.7Z"/>
    <path class="cls-3" d="M60.6,123.6h1.7c0,0,0,1.3,0,1.3l-4.7-.4v-1.2c0,0,1.8,0,1.8,0l.5-5.9h1.2c0,0-.4,6.1-.4,6.1Z"/>
    <path class="cls-3" d="M57.3,121c-.4,2-2.3,3.3-4.3,2.9s-3.3-2.3-2.9-4.3c.4-2,2.3-3.3,4.3-2.9,2,.4,3.3,2.3,2.9,4.3ZM51.3,119.8c-.3,1.4.5,2.7,1.9,2.9s2.6-.6,2.9-2c.3-1.4-.5-2.7-1.9-2.9s-2.6.7-2.9,2Z"/>
    <path class="cls-3" d="M45.3,121.8l-1.6-.6.3-5.7h0l-3.8,4.3-1.6-.6,2.7-6.5,1.1.5-1.9,4.6h0c0-.2.3-.4.5-.6l3-3.3,1.1.4v4.5c0,.3,0,.6-.2.8h0l1.9-4.6,1.1.5-2.6,6.3Z"/>
    <path class="cls-3" d="M35,117.1l-1.2-.7,1.4-7.4,1.1.7-.2,1.1,2.7,1.5.9-.7,1.1.7-5.8,4.8ZM35.8,112l-.6,2.9c0,.2,0,.3,0,.5h0c0,0,.2-.3.4-.4l2.3-2-2-1Z"/>
    <path class="cls-3" d="M30.3,114.2l-1-.8.5-5.2c0-.2.1-.5.1-.7h0l-3.1,4.1-1-.7,4.3-5.6,1.1.8-.5,5.3c0,.2,0,.4-.1.6h0l3-4,1,.7-4.3,5.5Z"/>
    <path class="cls-3" d="M24.1,109.3l-.9-.8,4.8-5.2.9.8-4.8,5.2Z"/>
    <path class="cls-3" d="M21.7,107l-1.5-1.6c-.9-1-.9-2.6.1-3.5s2.6-.9,3.5,0l.7.7,1.6-1.5.8.9-5.2,4.9ZM23,102.9c-.5-.5-1.2-.6-1.8,0s-.6,1.3-.1,1.8l.7.7,1.9-1.8-.7-.7Z"/>
    <path class="cls-3" d="M20.6,100.6c-1.7,1.2-4,.8-5.1-.8-1.2-1.7-.8-3.9.8-5.1,1.6-1.2,3.9-.8,5.1.8,1.2,1.6.8,3.9-.8,5.1ZM17,95.6c-1.2.8-1.4,2.3-.6,3.5.8,1.1,2.3,1.3,3.5.5,1.1-.8,1.4-2.3.6-3.4-.9-1.2-2.4-1.4-3.5-.6Z"/>
    <path class="cls-3" d="M12.5,95.1l-.6-1.1,5.2-2.8-1.4-2.5,1-.6,2,3.6-6.2,3.4Z"/>
    <path class="cls-3" d="M9.2,88.6l-.6-1.3,5.6-5.1.5,1.2-.8.8,1.2,2.8h1.1c0,0,.5,1.1.5,1.1l-7.5.5ZM13,85l-2.2,2c-.1,0-.3.2-.4.3h0c.2,0,.3,0,.5,0l3-.2-.9-2Z"/>
    <path class="cls-3" d="M8.3,82.8l.5,1.7-1.1.3-1.4-4.5,1.1-.3.5,1.7,5.7-1.8.4,1.2-5.7,1.7Z"/>
    <path class="cls-3" d="M9.5,78.8c-2,.4-3.9-1-4.3-3s.9-3.9,3-4.3c2-.4,3.9,1,4.3,3,.3,2-1,3.9-3,4.3ZM8.4,72.8c-1.4.3-2.3,1.5-2,2.9s1.5,2.2,2.9,1.9c1.4-.3,2.3-1.5,2-2.8-.3-1.5-1.5-2.3-2.9-2Z"/>
    <path class="cls-3" d="M7.9,68.5c-2.1,0-3.7-1.6-3.7-3.6s.4-2,1.1-2.6l.8.7c-.5.5-.7,1.1-.7,1.9,0,1.3,1,2.4,2.5,2.4s2.5-1.1,2.5-2.4-.3-1.4-.7-1.8l.8-.8c.7.7,1.1,1.6,1.1,2.6,0,1.9-1.6,3.6-3.7,3.6Z"/>
    <path class="cls-3" d="M7.9,61.8c-2-.2-3.5-2.1-3.2-4.1.2-2,2.1-3.5,4.1-3.2,2,.2,3.5,2.1,3.2,4.1-.3,2-2.1,3.4-4.1,3.2ZM8.6,55.7c-1.4-.2-2.6.7-2.8,2.1-.2,1.4.8,2.5,2.2,2.7s2.6-.7,2.8-2.1c.2-1.4-.8-2.6-2.2-2.7Z"/>
    <path class="cls-3" d="M5.7,52.1l.3-1.2,5-1.5c.2,0,.5,0,.7-.2h0l-4.9-1.3.3-1.2,6.8,1.9-.4,1.3-5.1,1.5c-.2,0-.4,0-.6,0h0l4.8,1.3v1.2c-.1,0-6.9-1.9-6.9-1.9Z"/>
    <path class="cls-3" d="M9.5,40.7l.6-1.3,7.5.7-.6,1.2h-1.1c0,0-1.3,2.7-1.3,2.7l.8.8-.5,1.2-5.4-5.3ZM14.7,41.1l-3-.3c-.2,0-.3,0-.5,0h0c.1,0,.3.2.4.3l2.2,2.1.9-2Z"/>
    <path class="cls-3" d="M11.9,36l.6-1.1,6.1,3.5-.6,1.1-6.1-3.5Z"/>
    <path class="cls-3" d="M18.7,37.2c-.3-.2-.4-.7-.2-1,.2-.3.7-.4,1-.2s.4.7.2,1c-.2.3-.7.4-1,.2Z"/>
  </g>
</svg>